<svg width="20" height="29" viewBox="0 0 20 29" fill="none" xmlns="http://www.w3.org/2000/svg">
<path d="M9.99326 7.08927C10.7533 7.08927 11.5152 7.07383 12.2752 7.09892C12.5214 7.10664 12.7929 7.17804 13.0023 7.30155C14.4738 8.16422 15.6061 9.38391 16.5638 10.7676C18.3223 13.3093 19.4604 16.1038 19.8849 19.1665C20.1467 21.0482 19.9993 22.8835 19.0513 24.5857C18.0237 26.4287 16.4378 27.6156 14.4563 28.2467C11.0635 29.3255 7.67253 29.31 4.42119 27.7777C1.41995 26.365 -0.0380224 23.8967 0.000753313 20.5908C0.0317739 18.0105 0.807288 15.6117 1.92403 13.3132C2.80036 11.5087 3.89578 9.84515 5.40221 8.49616C5.93926 8.01561 6.55773 7.62192 7.15488 7.21085C7.28478 7.12207 7.47672 7.09313 7.64151 7.08927C8.42478 7.07769 9.20612 7.08348 9.98939 7.08348C9.99326 7.08541 9.99326 7.08734 9.99326 7.08927Z" fill="#F5EBCC"/>
<path d="M9.99139 0.00171546C11.2962 0.00171546 12.5991 -0.000214432 13.9039 0.00171546C14.4836 0.00171546 14.6774 0.27576 14.4739 0.81034C13.8282 2.50671 13.1788 4.20309 12.539 5.90139C12.4672 6.09245 12.3722 6.16193 12.1628 6.16C10.7165 6.15035 9.2721 6.15035 7.82576 6.16C7.62025 6.16193 7.51943 6.10017 7.44576 5.90525C6.80208 4.19537 6.14677 2.49127 5.49922 0.783322C5.31115 0.28541 5.50891 0.00171546 6.04208 0.00171546C7.36045 -0.00214432 8.67495 0.00171546 9.99139 0.00171546Z" fill="#F5EBCC"/>
</svg>
