<svg width="36" height="36" viewBox="0 0 36 36" fill="none" xmlns="http://www.w3.org/2000/svg">
<rect x="1" y="1" width="34" height="34" rx="17" stroke="black" stroke-width="2"/>
<path d="M22.0406 23.6568L18 19.6162L13.9594 23.6568C13.5149 24.1013 12.7876 24.1013 12.3431 23.6568C11.8987 23.2124 11.8987 22.4851 12.3431 22.0406L16.3838 18L12.3431 13.9594C11.8987 13.5149 11.8987 12.7876 12.3431 12.3431C12.7876 11.8987 13.5149 11.8987 13.9594 12.3431L18 16.3837L22.0406 12.3431C22.4851 11.8987 23.2124 11.8987 23.6569 12.3431C24.1013 12.7876 24.1013 13.5149 23.6569 13.9594L19.6162 18L23.6569 22.0406C24.1013 22.4851 24.1013 23.2124 23.6569 23.6568C23.2124 24.1013 22.4851 24.1013 22.0406 23.6568Z" fill="black"/>
</svg>
