<svg width="36" height="36" viewBox="0 0 36 36" fill="none" xmlns="http://www.w3.org/2000/svg">
<rect x="1" y="1" width="34" height="34" rx="17" stroke="#F5ECCD" stroke-width="2"/>
<path d="M16.8571 24.8571L16.8571 19.1429L11.1429 19.1429C10.5143 19.1429 10 18.6286 10 18C10 17.3714 10.5143 16.8571 11.1429 16.8571L16.8571 16.8571L16.8571 11.1429C16.8571 10.5143 17.3714 10 18 10C18.6286 10 19.1429 10.5143 19.1429 11.1429L19.1429 16.8571L24.8571 16.8571C25.4857 16.8571 26 17.3714 26 18C26 18.6286 25.4857 19.1429 24.8571 19.1429L19.1429 19.1429L19.1429 24.8571C19.1429 25.4857 18.6286 26 18 26C17.3714 26 16.8571 25.4857 16.8571 24.8571Z" fill="#F5ECCD"/>
</svg>
