<svg width="40" height="40" viewBox="0 0 40 40" fill="none" xmlns="http://www.w3.org/2000/svg">
<circle cx="20" cy="20" r="19" stroke="#F5EBCC" stroke-width="2"/>
<path d="M20.2492 12C21.0987 12 21.97 12.022 22.8145 12.058L23.8121 12.106L24.7669 12.163L25.6611 12.224L26.4778 12.288C27.3641 12.3563 28.1981 12.7369 28.8331 13.363C29.4681 13.9891 29.8633 14.8205 29.9494 15.711L29.9891 16.136L30.0636 17.046C30.1332 17.989 30.1848 19.017 30.1848 20C30.1848 20.983 30.1332 22.011 30.0636 22.954L29.9891 23.864C29.9762 24.01 29.9633 24.151 29.9494 24.289C29.8633 25.1796 29.4679 26.0112 28.8327 26.6373C28.1976 27.2634 27.3633 27.6439 26.4768 27.712L25.6621 27.775L24.7679 27.837L23.8121 27.894L22.8145 27.942C21.9599 27.9794 21.1046 27.9987 20.2492 28C19.3937 27.9987 18.5384 27.9794 17.6838 27.942L16.6862 27.894L15.7314 27.837L14.8372 27.775L14.0205 27.712C13.1342 27.6437 12.3002 27.2631 11.6652 26.637C11.0302 26.0109 10.635 25.1795 10.549 24.289L10.5092 23.864L10.4347 22.954C10.3587 21.9711 10.3183 20.9858 10.3135 20C10.3135 19.017 10.3651 17.989 10.4347 17.046L10.5092 16.136C10.5221 15.99 10.535 15.849 10.549 15.711C10.6349 14.8207 11.0301 13.9894 11.6648 13.3633C12.2996 12.7373 13.1334 12.3565 14.0195 12.288L14.8352 12.224L15.7294 12.163L16.6852 12.106L17.6828 12.058C18.5377 12.0206 19.3934 12.0013 20.2492 12ZM20.2492 14C19.4295 14 18.5859 14.022 17.7652 14.056L16.7935 14.103L15.8606 14.158L14.9842 14.218L14.1814 14.281C13.7595 14.3111 13.3618 14.4906 13.0588 14.7877C12.7558 15.0848 12.5671 15.4803 12.5262 15.904C12.4099 17.113 12.3006 18.618 12.3006 20C12.3006 21.382 12.4099 22.887 12.5262 24.096C12.6106 24.968 13.2982 25.646 14.1814 25.719L14.9842 25.781L15.8606 25.841L16.7935 25.897L17.7652 25.944C18.5859 25.978 19.4295 26 20.2492 26C21.0689 26 21.9124 25.978 22.7331 25.944L23.7048 25.897L24.6377 25.842L25.5141 25.782L26.3169 25.719C26.7388 25.6889 27.1365 25.5094 27.4395 25.2123C27.7425 24.9152 27.9312 24.5197 27.9722 24.096C28.0884 22.887 28.1977 21.382 28.1977 20C28.1977 18.618 28.0884 17.113 27.9722 15.904C27.9312 15.4803 27.7425 15.0848 27.4395 14.7877C27.1365 14.4906 26.7388 14.3111 26.3169 14.281L25.5141 14.219L24.6377 14.159L23.7048 14.103L22.7331 14.056C21.9056 14.0202 21.0774 14.0015 20.2492 14ZM18.262 17.575C18.262 17.4773 18.2856 17.381 18.3309 17.2946C18.3763 17.2081 18.4419 17.1341 18.5221 17.079C18.6023 17.0239 18.6947 16.9894 18.7912 16.9784C18.8876 16.9674 18.9853 16.9803 19.0758 17.016L19.1562 17.056L23.3292 19.48C23.4123 19.5283 23.4826 19.596 23.5341 19.6774C23.5857 19.7589 23.6169 19.8517 23.6252 19.9478C23.6335 20.044 23.6186 20.1408 23.5818 20.23C23.5449 20.3192 23.4873 20.3981 23.4137 20.46L23.3292 20.52L19.1562 22.945C19.0721 22.994 18.9774 23.0216 18.8803 23.0253C18.7832 23.0291 18.6867 23.0089 18.5991 22.9665C18.5115 22.9241 18.4356 22.8608 18.3779 22.7821C18.3202 22.7034 18.2824 22.6117 18.268 22.515L18.262 22.425V17.575Z" fill="#F5EBCC"/>
</svg>
