<svg width="40" height="40" viewBox="0 0 40 40" fill="none" xmlns="http://www.w3.org/2000/svg">
<path d="M16.1699 10H24.5159C27.6953 10 30.2786 12.6 30.2786 15.8V24.2C30.2786 25.7383 29.6714 27.2135 28.5907 28.3012C27.51 29.3889 26.0443 30 24.5159 30H16.1699C12.9905 30 10.4072 27.4 10.4072 24.2V15.8C10.4072 14.2617 11.0144 12.7865 12.0951 11.6988C13.1758 10.6111 14.6416 10 16.1699 10ZM15.9712 12C15.0226 12 14.1128 12.3793 13.442 13.0544C12.7712 13.7295 12.3944 14.6452 12.3944 15.6V24.4C12.3944 26.39 13.994 28 15.9712 28H24.7146C25.6632 28 26.573 27.6207 27.2438 26.9456C27.9146 26.2705 28.2915 25.3548 28.2915 24.4V15.6C28.2915 13.61 26.6918 12 24.7146 12H15.9712ZM25.5591 13.5C25.8885 13.5 26.2044 13.6317 26.4373 13.8661C26.6703 14.1005 26.8011 14.4185 26.8011 14.75C26.8011 15.0815 26.6703 15.3995 26.4373 15.6339C26.2044 15.8683 25.8885 16 25.5591 16C25.2298 16 24.9139 15.8683 24.6809 15.6339C24.448 15.3995 24.3172 15.0815 24.3172 14.75C24.3172 14.4185 24.448 14.1005 24.6809 13.8661C24.9139 13.6317 25.2298 13.5 25.5591 13.5ZM20.3429 15C21.6605 15 22.9241 15.5268 23.8557 16.4645C24.7874 17.4021 25.3107 18.6739 25.3107 20C25.3107 21.3261 24.7874 22.5979 23.8557 23.5355C22.9241 24.4732 21.6605 25 20.3429 25C19.0254 25 17.7618 24.4732 16.8301 23.5355C15.8985 22.5979 15.3751 21.3261 15.3751 20C15.3751 18.6739 15.8985 17.4021 16.8301 16.4645C17.7618 15.5268 19.0254 15 20.3429 15ZM20.3429 17C19.5524 17 18.7942 17.3161 18.2352 17.8787C17.6762 18.4413 17.3622 19.2044 17.3622 20C17.3622 20.7956 17.6762 21.5587 18.2352 22.1213C18.7942 22.6839 19.5524 23 20.3429 23C21.1334 23 21.8916 22.6839 22.4506 22.1213C23.0096 21.5587 23.3236 20.7956 23.3236 20C23.3236 19.2044 23.0096 18.4413 22.4506 17.8787C21.8916 17.3161 21.1334 17 20.3429 17Z" fill="#F5EBCC"/>
<circle cx="20" cy="20" r="19" stroke="#F5EBCC" stroke-width="2"/>
</svg>
