<svg width="13" height="13" viewBox="0 0 13 13" fill="none" xmlns="http://www.w3.org/2000/svg">
<path d="M10.5014 11.9706L6.33545 7.92995L2.16949 11.9706C1.71124 12.415 0.961368 12.415 0.503113 11.9706C0.0448579 11.5261 0.0448579 10.7988 0.503113 10.3543L4.66907 6.31371L0.503113 2.2731C0.0448579 1.82863 0.0448579 1.10132 0.503113 0.656854C0.961368 0.212387 1.71124 0.212387 2.16949 0.656854L6.33545 4.69746L10.5014 0.656854C10.9597 0.212387 11.7095 0.212387 12.1678 0.656854C12.626 1.10132 12.626 1.82863 12.1678 2.2731L8.00183 6.31371L12.1678 10.3543C12.626 10.7988 12.626 11.5261 12.1678 11.9706C11.7095 12.415 10.9597 12.415 10.5014 11.9706Z" fill="#F5ECCD"/>
</svg>
