<svg width="36" height="36" viewBox="0 0 36 36" fill="none" xmlns="http://www.w3.org/2000/svg">
<rect x="1" y="1" width="34" height="34" rx="17" stroke="#F5EBCC" stroke-width="2"/>
<path d="M22.3252 23.6561L18.2922 19.6155L14.2593 23.6561C13.8157 24.1006 13.0897 24.1006 12.6461 23.6561C12.2025 23.2116 12.2025 22.4843 12.6461 22.0399L16.6791 17.9993L12.6461 13.9586C12.2025 13.5142 12.2025 12.7869 12.6461 12.3424C13.0897 11.8979 13.8157 11.8979 14.2593 12.3424L18.2922 16.383L22.3252 12.3424C22.7688 11.8979 23.4947 11.8979 23.9384 12.3424C24.382 12.7869 24.382 13.5142 23.9384 13.9586L19.9054 17.9993L23.9384 22.0399C24.382 22.4843 24.382 23.2116 23.9384 23.6561C23.4947 24.1006 22.7688 24.1006 22.3252 23.6561Z" fill="#F5ECCD"/>
</svg>
