<svg width="40" height="40" viewBox="0 0 40 40" fill="none" xmlns="http://www.w3.org/2000/svg">
<circle cx="20" cy="20" r="19" stroke="#F5EBCC" stroke-width="2"/>
<path d="M14.7521 27.0828L14.2536 27.8678C14.0834 28.1589 13.806 28.3707 13.4815 28.4573C13.1571 28.5439 12.8119 28.4983 12.5207 28.3303C12.3768 28.2482 12.2506 28.1382 12.1493 28.0066C12.048 27.8751 11.9737 27.7246 11.9306 27.5639C11.8874 27.4033 11.8764 27.2356 11.8981 27.0706C11.9198 26.9056 11.9738 26.7466 12.057 26.6028L12.3725 26.1378C12.4942 25.9644 12.7931 25.6644 13.3909 25.7211C13.3909 25.7211 14.7984 25.8736 14.9003 26.6028C14.9003 26.6028 14.9143 26.8428 14.7521 27.0828ZM28.8226 21.9761H25.8295C25.6258 21.9628 25.5372 21.8903 25.5016 21.8478L25.5 21.8436L22.6393 17.1769C22.3247 16.6969 21.8246 17.9244 21.8246 17.9244C21.2276 19.2928 21.9091 20.8486 22.1475 21.3186L26.0572 27.8661C26.2274 28.1572 26.5049 28.3691 26.8293 28.4557C27.1537 28.5422 27.499 28.4966 27.7901 28.3286C27.934 28.2465 28.0602 28.1365 28.1615 28.0049C28.2628 27.8734 28.3371 27.7229 28.3803 27.5623C28.4234 27.4016 28.4344 27.2339 28.4127 27.0689C28.391 26.904 28.337 26.7449 28.2538 26.6011L27.1418 24.6794C27.1203 24.6328 27.0822 24.5069 27.3108 24.5061H28.8226C29.5231 24.5061 30.0911 23.9394 30.0911 23.2411C30.0911 22.5428 29.5231 21.9761 28.8226 21.9761ZM21.616 23.6961C21.616 23.6961 21.7758 24.5061 21.1573 24.5061H11.4882C10.7877 24.5061 10.2197 23.9394 10.2197 23.2411C10.2197 22.5428 10.7877 21.9761 11.4882 21.9761H14.3323C14.7918 21.9494 14.9003 21.6853 14.9003 21.6853L14.9027 21.6869L18.6154 15.2753C18.6363 15.2352 18.6472 15.1906 18.6472 15.1453C18.6472 15.1 18.6363 15.0554 18.6154 15.0153L17.39 12.8978C17.3068 12.7539 17.2528 12.5949 17.2311 12.4299C17.2094 12.265 17.2204 12.0973 17.2635 11.9366C17.3067 11.776 17.381 11.6255 17.4823 11.4939C17.5836 11.3624 17.7098 11.2524 17.8536 11.1703C18.1449 11.002 18.4904 10.9562 18.815 11.0428C19.1396 11.1294 19.4172 11.3414 19.5874 11.6328L20.1554 12.6153L20.7226 11.6344C20.8928 11.3433 21.1702 11.1315 21.4946 11.0449C21.8191 10.9583 22.1643 11.004 22.4555 11.1719C22.5994 11.254 22.7257 11.3639 22.8271 11.4955C22.9285 11.627 23.0029 11.7774 23.0461 11.9381C23.0893 12.0988 23.1004 12.2665 23.0788 12.4315C23.0571 12.5965 23.0032 12.7556 22.92 12.8994L17.7543 21.8219C17.7319 21.8761 17.7253 21.9611 17.8934 21.9761H19.5874C19.5874 21.9761 21.3725 22.0344 21.616 23.6961Z" fill="#F5EBCC"/>
</svg>
