<svg width="16" height="15" viewBox="0 0 16 15" fill="none" xmlns="http://www.w3.org/2000/svg">
<path d="M12.3846 1.8328L10.8802 1.0415C9.55937 0.347418 8.89895 0 8.18888 0C7.47882 0 6.8184 0.346664 5.49755 1.0415L5.2561 1.16886L11.9679 5.01156L14.9887 3.49678C14.5028 2.94514 13.719 2.53291 12.3846 1.83129V1.8328ZM15.5212 4.49457L12.514 6.00181V8.28979C12.514 8.4397 12.4545 8.58346 12.3487 8.68946C12.2429 8.79546 12.0994 8.855 11.9498 8.855C11.8002 8.855 11.6567 8.79546 11.5509 8.68946C11.4451 8.58346 11.3857 8.4397 11.3857 8.28979V6.56627L8.75303 7.8851V15C9.2931 14.8651 9.90764 14.5426 10.8802 14.0308L12.3846 13.2396C14.0026 12.3887 14.8119 11.9637 15.2617 11.1988C15.7108 10.4346 15.7108 9.48277 15.7108 7.58139V7.49322C15.7108 6.06662 15.7108 5.17434 15.5212 4.49457ZM7.62474 15V7.88585L0.856544 4.49457C0.666992 5.17434 0.666992 6.06662 0.666992 7.49171V7.57988C0.666992 9.48277 0.666992 10.4346 1.11605 11.1988C1.56586 11.9637 2.37521 12.3895 3.99317 13.2403L5.49755 14.0308C6.47013 14.5426 7.08467 14.8651 7.62474 15ZM1.38909 3.49754L8.18888 6.90389L10.7546 5.61897L4.07065 1.7921L3.99317 1.8328C2.65954 2.53366 1.87501 2.94589 1.38909 3.49829V3.49754Z" fill="#7B7566"/>
</svg>
