<svg width="22" height="13" viewBox="0 0 22 13" fill="none" xmlns="http://www.w3.org/2000/svg">
<path d="M11.629 4.00591C11.1474 2.6357 10.1859 1.48714 8.92294 0.773551C7.66001 0.0599612 6.1815 -0.170164 4.76201 0.125913C2.47635 0.585913 0.619877 2.41591 0.140786 4.70591C-0.0523644 5.58301 -0.0467039 6.49235 0.157351 7.36697C0.361406 8.24159 0.75866 9.05922 1.31986 9.75965C1.88106 10.4601 2.59192 11.0255 3.4001 11.4142C4.20828 11.803 5.09319 12.0052 5.98968 12.0059C7.22727 12.006 8.43438 11.6212 9.44447 10.9047C10.4545 10.1883 11.2178 9.17543 11.629 8.00591H15.9707V10.0059C15.9707 11.1059 16.869 12.0059 17.9669 12.0059C19.0649 12.0059 19.9631 11.1059 19.9631 10.0059V8.00591C21.0611 8.00591 21.9594 7.10591 21.9594 6.00591C21.9594 4.90591 21.0611 4.00591 19.9631 4.00591H11.629ZM5.98968 8.00591C4.89177 8.00591 3.99347 7.10591 3.99347 6.00591C3.99347 4.90591 4.89177 4.00591 5.98968 4.00591C7.0876 4.00591 7.98589 4.90591 7.98589 6.00591C7.98589 7.10591 7.0876 8.00591 5.98968 8.00591Z" fill="#D0871F"/>
</svg>
