<svg width="40" height="40" viewBox="0 0 40 40" fill="none" xmlns="http://www.w3.org/2000/svg">
<circle cx="20" cy="20" r="19" stroke="#F5EBCC" stroke-width="2"/>
<path d="M14.4248 10.0863L14.4996 10.2163C14.5757 10.1725 14.6618 10.1497 14.7494 10.15C14.8369 10.1504 14.9228 10.1739 14.9985 10.2183C14.9985 10.2183 14.9985 10.2183 14.9986 10.2183L25.0132 16.0979L22.1118 18.7257L14.2486 11.6035L14.2486 10.6539L14.2486 10.6538C14.2486 10.5648 14.2718 10.4776 14.316 10.4007C14.3601 10.3239 14.4236 10.2602 14.4998 10.2162L14.4248 10.0863ZM14.4248 10.0863C14.5238 10.0293 14.6359 9.99955 14.75 10C14.864 10.0005 14.9759 10.0311 15.0744 10.0889M14.4248 10.0863C14.3256 10.1436 14.2432 10.2263 14.1859 10.326C14.1286 10.4256 14.0985 10.5387 14.0986 10.6539L15.0744 10.0889M15.0744 10.0889L25.1297 15.9924L15.0744 10.0889ZM25.0132 23.5186L14.9998 29.3982L14.9998 29.3982C14.9239 29.4428 14.8377 29.4664 14.75 29.4667C14.6623 29.467 14.576 29.444 14.4998 29.3999C14.4236 29.3559 14.3602 29.2923 14.316 29.2155C14.2719 29.1387 14.2486 29.0515 14.2486 28.9627V28.9626V28.013L22.1118 20.8908L25.0132 23.5186ZM23.3058 19.8082L26.4629 16.9489L30.5908 19.3726L30.5908 19.3727C30.6663 19.4169 30.729 19.4804 30.7726 19.5568C30.8163 19.6333 30.8393 19.72 30.8393 19.8082C30.8393 19.8965 30.8163 19.9832 30.7726 20.0597C30.729 20.1361 30.6663 20.1996 30.5908 20.2438L30.5908 20.2439L26.4629 22.6676L23.3058 19.8082ZM14.2486 13.7685L20.9177 19.8082L14.2486 25.848V13.7685Z" fill="#F5EBCC" stroke="black" stroke-width="0.3" stroke-linejoin="round"/>
</svg>
